<svg xmlns="http://www.w3.org/2000/svg" width="83" height="24" viewBox="0 0 83 24" class="css-1dptxfd"><path d="M25.6318 9.88585C25.6318 9.98627 25.5512 10.0668 25.4508 10.0668C25.3503 10.0668 25.2697 9.98627 25.2697 9.88585C25.2697 9.78659 25.3503 9.70485 25.4508 9.70485C25.5512 9.70602 25.6318 9.78659 25.6318 9.88585Z"></path><path d="M25.0209 5.59459C24.9216 5.59459 24.8398 5.67516 24.8398 5.77559C24.8398 5.87484 24.9204 5.95658 25.0209 5.95658C25.1202 5.95658 25.2019 5.87601 25.2019 5.77559C25.2019 5.67516 25.1202 5.59459 25.0209 5.59459Z"></path><path d="M9.19577 2.96247C9.19577 2.86322 9.11517 2.78148 9.01471 2.78148C8.91425 2.78148 8.83364 2.86205 8.83364 2.96247C8.83364 3.06173 8.91425 3.14347 9.01471 3.14347C9.114 3.14347 9.19577 3.0629 9.19577 2.96247Z"></path><path d="M18.2654 4.23175C18.3646 4.23175 18.4464 4.15117 18.4464 4.05075C18.4464 3.95149 18.3658 3.86975 18.2654 3.86975C18.1661 3.86975 18.0843 3.95149 18.0843 4.05075C18.0843 4.15117 18.1649 4.23175 18.2654 4.23175Z"></path><path d="M11.0743 4.18521C11.0743 4.08595 10.9925 4.00421 10.8932 4.00421C10.7939 4.00421 10.7121 4.08479 10.7121 4.18521C10.7121 4.28447 10.7927 4.36621 10.8932 4.36621C10.9925 4.36621 11.0743 4.28447 11.0743 4.18521Z"></path><path d="M24.7708 7.18137C24.8713 7.18137 24.9519 7.1008 24.9519 7.00037C24.9519 6.90112 24.8713 6.81938 24.7708 6.81938C24.6704 6.81938 24.5886 6.89995 24.5886 7.00037C24.5886 7.1008 24.6704 7.18137 24.7708 7.18137Z"></path><path d="M21.3072 8.54282C21.3072 9.51202 22.0934 10.2991 23.063 10.2991C24.0337 10.2991 24.8199 9.51319 24.8199 8.54282C24.8199 7.57244 24.0325 6.78657 23.063 6.78657C22.0922 6.78774 21.3072 7.57361 21.3072 8.54282Z"></path><path d="M22.1998 5.93541C22.1998 6.33477 22.5234 6.65822 22.9229 6.65822C23.3236 6.65822 23.6472 6.3336 23.6472 5.93541C23.6472 5.53605 23.3236 5.21142 22.9229 5.21142C22.5234 5.21142 22.1998 5.53605 22.1998 5.93541Z"></path><path d="M22.0199 6.7004C22.0199 6.59998 21.9393 6.51941 21.8388 6.51941C21.7395 6.51941 21.6577 6.59998 21.6577 6.7004C21.6577 6.79966 21.7383 6.8814 21.8388 6.8814C21.9393 6.8814 22.0199 6.79966 22.0199 6.7004Z"></path><path d="M21.8761 4.55417C21.8831 4.75385 22.0513 4.90915 22.251 4.90331C22.4508 4.89631 22.6073 4.72932 22.6003 4.52964C22.5933 4.32997 22.4263 4.17349 22.2253 4.1805C22.0256 4.1875 21.869 4.35449 21.8761 4.55417Z"></path><path d="M21.8761 3.56501C21.9766 3.56501 22.0584 3.48444 22.0584 3.38401C22.0584 3.28476 21.9778 3.20302 21.8761 3.20302C21.7757 3.20302 21.6951 3.28359 21.6951 3.38401C21.6951 3.48444 21.7757 3.56501 21.8761 3.56501Z"></path><path d="M21.2617 5.87925C21.2617 6.07893 21.424 6.24124 21.6226 6.24124C21.8224 6.24124 21.9848 6.07893 21.9848 5.87925C21.9848 5.67957 21.8212 5.51843 21.6226 5.51843C21.4229 5.51843 21.2617 5.67957 21.2617 5.87925Z"></path><path d="M18.4862 4.83789C18.4862 5.63661 19.1345 6.28469 19.9336 6.28469C20.7326 6.28469 21.3809 5.63661 21.3809 4.83789C21.3809 4.03917 20.7326 3.39109 19.9336 3.39109C19.1345 3.39109 18.4862 4.03917 18.4862 4.83789Z"></path><path d="M19.541 2.75942C19.6403 2.75942 19.722 2.67885 19.722 2.57843C19.722 2.47917 19.6414 2.39743 19.541 2.39743C19.4417 2.39743 19.3599 2.478 19.3599 2.57843C19.3599 2.67768 19.4405 2.75942 19.541 2.75942Z"></path><path d="M18.7139 3.61065C18.9137 3.60364 19.069 3.43666 19.062 3.23698C19.055 3.0373 18.888 2.88083 18.6882 2.889C18.4885 2.89601 18.3319 3.06299 18.3389 3.26267C18.3459 3.46235 18.513 3.61765 18.7139 3.61065Z"></path><path d="M16.5844 2.68464C16.5844 3.084 16.908 3.40746 17.3075 3.40746C17.7082 3.40746 18.0318 3.08284 18.0318 2.68464C18.0318 2.28528 17.7082 1.96183 17.3075 1.96183C16.908 1.96183 16.5844 2.28528 16.5844 2.68464Z"></path><path d="M16.692 0.876983C16.7913 0.876983 16.873 0.79641 16.873 0.695987C16.873 0.596731 16.7924 0.514991 16.692 0.514991C16.5927 0.514991 16.5109 0.595563 16.5109 0.695987C16.5109 0.795243 16.5915 0.876983 16.692 0.876983Z"></path><path d="M16.6381 3.97371C16.7584 3.97371 16.8554 3.87679 16.8554 3.75651C16.8554 3.63624 16.7584 3.53932 16.6381 3.53932C16.5166 3.53932 16.4196 3.63624 16.4196 3.75651C16.4196 3.87562 16.5166 3.97371 16.6381 3.97371Z"></path><path d="M22.3831 14.1866C22.2838 14.1866 22.202 14.2671 22.202 14.3676C22.202 14.4668 22.2826 14.5485 22.3831 14.5485C22.4824 14.5485 22.5642 14.468 22.5642 14.3676C22.5642 14.2671 22.4835 14.1866 22.3831 14.1866Z"></path><path d="M12.6442 3.90362C12.6442 4.90202 13.4538 5.71241 14.4537 5.71241C15.4525 5.71241 16.2632 4.90319 16.2632 3.90362C16.2632 2.90522 15.4536 2.096 14.4537 2.096C13.4538 2.09483 12.6442 2.90522 12.6442 3.90362Z"></path><path d="M15.5565 2.04567C15.7574 2.03867 15.9127 1.87168 15.9057 1.672C15.8987 1.47232 15.7317 1.31585 15.5319 1.32286C15.331 1.32986 15.1756 1.49685 15.1826 1.69653C15.1896 1.89737 15.3579 2.05268 15.5565 2.04567Z"></path><path d="M14.7994 0.876983C14.8999 0.876983 14.9817 0.79641 14.9817 0.695987C14.9817 0.596731 14.901 0.514991 14.7994 0.514991C14.7001 0.514991 14.6184 0.595563 14.6184 0.695987C14.6184 0.795243 14.7001 0.876983 14.7994 0.876983Z"></path><path d="M13.018 2.51042C13.1173 2.51042 13.1991 2.42985 13.1991 2.32943C13.1991 2.23017 13.1185 2.14843 13.018 2.14843C12.9187 2.14843 12.837 2.229 12.837 2.32943C12.837 2.42868 12.9176 2.51042 13.018 2.51042Z"></path><path d="M12.5858 5.16828C12.6851 5.16828 12.7669 5.08771 12.7669 4.98728C12.7669 4.88803 12.6863 4.80629 12.5858 4.80629C12.4853 4.80629 12.4047 4.88686 12.4047 4.98728C12.4047 5.08654 12.4853 5.16828 12.5858 5.16828Z"></path><path d="M11.9934 3.37465C12.3929 3.37465 12.7165 3.05119 12.7165 2.65183C12.7165 2.25248 12.3929 1.92902 11.9934 1.92902C11.5939 1.92902 11.2703 2.25248 11.2703 2.65183C11.2692 3.05119 11.5939 3.37465 11.9934 3.37465Z"></path><path d="M10.9316 2.75356C11.032 2.75356 11.1126 2.67299 11.1126 2.57257C11.1126 2.47214 11.032 2.39157 10.9316 2.39157C10.8323 2.39157 10.7505 2.47214 10.7505 2.57257C10.7505 2.67299 10.8323 2.75356 10.9316 2.75356Z"></path><path d="M10.8417 3.60126C11.0414 3.60126 11.2038 3.44011 11.2038 3.24043C11.2038 3.04075 11.0414 2.87844 10.8417 2.87844C10.6419 2.87844 10.4795 3.04075 10.4795 3.24043C10.4795 3.43894 10.6419 3.60126 10.8417 3.60126Z"></path><path d="M12.8567 6.07325C13.067 6.07325 13.2376 5.90276 13.2376 5.6914C13.2376 5.48121 13.067 5.30956 12.8567 5.30956C12.6465 5.30956 12.4748 5.48005 12.4748 5.6914C12.4748 5.90159 12.6465 6.07325 12.8567 6.07325Z"></path><path d="M12.4211 3.95866C12.4211 3.74847 12.2506 3.57798 12.0391 3.57798C11.8277 3.57798 11.6572 3.74847 11.6572 3.95866C11.6572 4.16885 11.8277 4.3405 12.0391 4.3405C12.2494 4.3405 12.4211 4.16885 12.4211 3.95866Z"></path><path d="M13.282 6.1575C13.282 6.31631 13.4116 6.44592 13.5717 6.44592C13.7305 6.44592 13.8602 6.31631 13.8602 6.1575C13.8602 5.99752 13.7305 5.86791 13.5717 5.86791C13.4116 5.86791 13.282 5.99752 13.282 6.1575Z"></path><path d="M9.72034 2.55266C10.1198 2.55266 10.4434 2.22803 10.4434 1.82984C10.4434 1.43048 10.1187 1.10702 9.72034 1.10702C9.32083 1.10702 8.99608 1.43048 8.99608 1.82984C8.99608 2.22803 9.32083 2.55266 9.72034 2.55266Z"></path><path d="M8.71913 1.14224C8.91889 1.13524 9.07542 0.967086 9.06841 0.767407C9.06141 0.567727 8.89319 0.412421 8.69343 0.419427C8.49368 0.426433 8.33714 0.593417 8.34532 0.793096C8.35233 0.992776 8.51938 1.14925 8.71913 1.14224Z"></path><path d="M8.13398 0.361992C8.23444 0.361992 8.31504 0.28142 8.31504 0.180996C8.31504 0.0817402 8.23444 0 8.13398 0C8.03352 0 7.95291 0.0805724 7.95291 0.180996C7.95291 0.28142 8.03352 0.361992 8.13398 0.361992Z"></path><path d="M7.61635 3.8968C8.21678 3.8968 8.70274 3.41103 8.70274 2.81199C8.70274 2.21295 8.21678 1.72718 7.61635 1.72718C7.01708 1.72718 6.53112 2.21295 6.53112 2.81199C6.53112 3.41103 7.01708 3.8968 7.61635 3.8968Z"></path><path d="M6.82556 1.50271C6.92602 1.50271 7.00662 1.42214 7.00662 1.32288C7.00662 1.22362 6.92602 1.14188 6.82556 1.14188C6.72626 1.14188 6.64449 1.22246 6.64449 1.32288C6.64449 1.42214 6.7251 1.50271 6.82556 1.50271Z"></path><path d="M6.19941 2.92288C6.2987 2.92288 6.38047 2.84231 6.38047 2.74189C6.38047 2.64263 6.29987 2.56089 6.19941 2.56089C6.09895 2.56089 6.01834 2.64146 6.01834 2.74189C6.01717 2.84231 6.09895 2.92288 6.19941 2.92288Z"></path><path d="M3.42273 4.57284C3.42273 5.54905 4.21474 6.33959 5.19015 6.33959C6.16674 6.33959 6.95875 5.54905 6.95875 4.57284C6.95875 3.59662 6.16674 2.80491 5.19015 2.80491C4.21474 2.80491 3.42273 3.59662 3.42273 4.57284Z"></path><path d="M3.64235 3.02211C3.8421 3.02211 4.00331 2.8598 4.00331 2.66012C4.00331 2.46044 3.84093 2.29812 3.64235 2.29812C3.44259 2.29812 3.28022 2.46044 3.28022 2.66012C3.27905 2.86096 3.44142 3.02211 3.64235 3.02211Z"></path><path d="M3.10143 5.94361C3.30119 5.94361 3.46356 5.7813 3.46356 5.58162C3.46356 5.38194 3.30119 5.2208 3.10143 5.2208C2.90168 5.2208 2.74047 5.38311 2.74047 5.58162C2.7393 5.7813 2.90168 5.94361 3.10143 5.94361Z"></path><path d="M1.21717 6.0605C1.21717 6.45986 1.54075 6.78332 1.94026 6.78332C2.33977 6.78332 2.66336 6.45986 2.66336 6.0605C2.66336 5.66114 2.33977 5.33768 1.94026 5.33768C1.54075 5.33768 1.21717 5.66114 1.21717 6.0605Z"></path><path d="M13.2061 22.4832C12.8872 22.4832 12.629 22.7413 12.629 23.0601C12.629 23.3789 12.8872 23.6369 13.2061 23.6369C13.5238 23.6369 13.7831 23.3789 13.7831 23.0601C13.7831 22.7413 13.5238 22.4832 13.2061 22.4832Z"></path><path d="M1.43459 4.83102C1.63434 4.83102 1.79672 4.66871 1.79672 4.46903C1.79672 4.26935 1.63434 4.10821 1.43459 4.10821C1.23483 4.10821 1.07246 4.27052 1.07246 4.46903C1.07246 4.66871 1.23483 4.83102 1.43459 4.83102Z"></path><path d="M1.5431 3.5861C1.64356 3.5861 1.72416 3.50553 1.72416 3.40511C1.72416 3.30468 1.64356 3.22411 1.5431 3.22411C1.4438 3.22411 1.36203 3.30468 1.36203 3.40511C1.36203 3.50553 1.44263 3.5861 1.5431 3.5861Z"></path><path d="M0.820044 7.42549C0.934524 7.42549 1.02798 7.33208 1.02798 7.21647C1.02798 7.10204 0.934524 7.00862 0.820044 7.00862C0.705564 7.00862 0.612111 7.10204 0.612111 7.21647C0.610943 7.33324 0.704396 7.42549 0.820044 7.42549Z"></path><path d="M0.72426 10.3238C0.72426 10.1241 0.561886 9.96176 0.36213 9.96176C0.162374 9.96176 0 10.1241 0 10.3238C0 10.5234 0.162374 10.6846 0.36213 10.6846C0.563054 10.6857 0.72426 10.5234 0.72426 10.3238Z"></path><path d="M0.530278 15.247C0.330523 15.247 0.168148 15.4093 0.168148 15.609C0.168148 15.8087 0.330523 15.971 0.530278 15.971C0.730034 15.971 0.892408 15.8087 0.892408 15.609C0.89124 15.4081 0.730034 15.247 0.530278 15.247Z"></path><path d="M2.09801 15.714C1.6985 15.714 1.37492 16.0374 1.37492 16.4368C1.37492 16.8361 1.69967 17.1608 2.09801 17.1608C2.49752 17.1608 2.82227 16.8373 2.82227 16.4368C2.82227 16.0374 2.49752 15.714 2.09801 15.714Z"></path><path d="M1.91689 18.298C1.81759 18.298 1.73582 18.3786 1.73582 18.479C1.73582 18.5782 1.81643 18.66 1.91689 18.66C2.01618 18.66 2.09795 18.5794 2.09795 18.479C2.09795 18.3786 2.01735 18.298 1.91689 18.298Z"></path><path d="M3.63302 16.6294C3.23351 16.6294 2.90993 16.9529 2.90993 17.3522C2.90993 17.7516 3.23351 18.0762 3.63302 18.0762C4.03253 18.0762 4.35611 17.7516 4.35611 17.3522C4.35728 16.9529 4.03253 16.6294 3.63302 16.6294Z"></path><path d="M3.85853 18.3938C3.65878 18.3938 3.49757 18.5561 3.49757 18.7546C3.49757 18.9543 3.65995 19.1154 3.85853 19.1154C4.05829 19.1154 4.22066 18.9531 4.22066 18.7546C4.22066 18.5549 4.05829 18.3938 3.85853 18.3938Z"></path><path d="M3.89583 15.7595C3.89583 16.299 4.33272 16.7357 4.87241 16.7357C5.4121 16.7357 5.84899 16.299 5.84899 15.7595C5.84899 15.22 5.4121 14.7833 4.87241 14.7833C4.33272 14.7833 3.89583 15.22 3.89583 15.7595Z"></path><path d="M5.21822 6.72472C5.21822 6.62429 5.13761 6.54372 5.03715 6.54372C4.93669 6.54372 4.85609 6.62429 4.85609 6.72472C4.85609 6.82397 4.93669 6.90571 5.03715 6.90571C5.13645 6.90571 5.21822 6.82514 5.21822 6.72472Z"></path><path d="M10.0438 5.40531C10.0438 5.50457 10.1244 5.58631 10.2248 5.58631C10.3253 5.58631 10.4059 5.50457 10.4059 5.40531C10.4059 5.30489 10.3253 5.22431 10.2248 5.22431C10.1244 5.22431 10.0438 5.30605 10.0438 5.40531Z"></path><path d="M11.4514 3.81728C11.4514 3.71685 11.3708 3.63628 11.2704 3.63628C11.1711 3.63628 11.0893 3.71685 11.0893 3.81728C11.0893 3.9177 11.1699 3.99827 11.2704 3.99827C11.3696 3.99944 11.4514 3.9177 11.4514 3.81728Z"></path><path d="M11.6419 6.38051C11.6419 6.47977 11.7225 6.56034 11.823 6.56034C11.9223 6.56034 12.0041 6.47977 12.0041 6.38051C12.0041 6.28125 11.9234 6.19951 11.823 6.19951C11.7225 6.20068 11.6419 6.28125 11.6419 6.38051Z"></path><path d="M4.81051 14.5906C4.94485 14.5906 5.05349 14.482 5.05349 14.3477C5.05349 14.2134 4.94368 14.1048 4.81051 14.1048C4.67617 14.1048 4.56637 14.2134 4.56637 14.3477C4.56754 14.482 4.67617 14.5906 4.81051 14.5906Z"></path><path d="M4.68783 7.10328C4.68783 6.50308 4.20188 6.01731 3.60261 6.01731C3.00335 6.01731 2.51739 6.50308 2.51739 7.10328C2.51739 7.70232 3.00335 8.18809 3.60261 8.18809C4.20071 8.18809 4.68783 7.70232 4.68783 7.10328Z"></path><path d="M0.421689 11.5206C0.421689 11.92 0.745269 12.2434 1.14478 12.2434C1.54429 12.2434 1.86787 11.92 1.86787 11.5206C1.86787 11.1213 1.54429 10.7978 1.14478 10.7978C0.745269 10.7966 0.421689 11.1213 0.421689 11.5206Z"></path><path d="M2.21361 11.4437C2.21361 11.6445 2.37598 11.8057 2.57574 11.8057C2.7755 11.8057 2.93787 11.6445 2.93787 11.4437C2.93787 11.244 2.7755 11.0828 2.57574 11.0828C2.37598 11.0828 2.21361 11.2452 2.21361 11.4437Z"></path><path d="M4.07106 8.54886C4.07106 8.44961 3.99046 8.36787 3.88999 8.36787C3.7907 8.36787 3.70893 8.44844 3.70893 8.54886C3.70893 8.64929 3.78953 8.72986 3.88999 8.72986C3.99046 8.72986 4.07106 8.64929 4.07106 8.54886Z"></path><path d="M3.40638 11.6C3.60613 11.6 3.76851 11.4377 3.76851 11.2392C3.76851 11.0395 3.60613 10.8772 3.40638 10.8772C3.20662 10.8772 3.04425 11.0395 3.04425 11.2392C3.04425 11.4377 3.20662 11.6 3.40638 11.6Z"></path><path d="M3.72756 12.0287C3.82802 12.0287 3.90862 11.9481 3.90862 11.8477C3.90862 11.7484 3.82802 11.6667 3.72756 11.6667C3.6271 11.6667 3.54649 11.7484 3.54649 11.8477C3.54649 11.9481 3.6271 12.0287 3.72756 12.0287Z"></path><path d="M2.9612 15.9591C2.9612 16.1587 3.12357 16.3199 3.32216 16.3199C3.52191 16.3199 3.68429 16.1576 3.68429 15.9591C3.68429 15.7594 3.52191 15.5971 3.32216 15.5971C3.12357 15.5971 2.9612 15.7594 2.9612 15.9591Z"></path><path d="M2.70069 15.4734C3.68545 15.4734 4.4833 14.6747 4.4833 13.6903C4.4833 12.7059 3.68545 11.9072 2.70069 11.9072C1.71476 11.9072 0.916906 12.7059 0.916906 13.6903C0.916906 14.6747 1.71593 15.4734 2.70069 15.4734Z"></path><path d="M2.37484 7.47109C2.37484 7.27141 2.21247 7.1091 2.01271 7.1091C1.81296 7.1091 1.65175 7.27141 1.65175 7.47109C1.65175 7.67077 1.81412 7.83191 2.01271 7.83191C2.21363 7.83191 2.37484 7.67077 2.37484 7.47109Z"></path><path d="M3.78715 9.53315C3.78715 8.73443 3.13882 8.08635 2.3398 8.08635C1.54078 8.08635 0.893617 8.7356 0.893617 9.53315C0.893617 10.3319 1.54195 10.98 2.34097 10.98C3.13999 10.98 3.78715 10.3319 3.78715 9.53315Z"></path><path d="M7.95167 18.4791C7.95167 17.5134 7.15966 16.7299 6.18308 16.7299C5.20649 16.7299 4.41565 17.5134 4.41565 18.4791C4.41565 19.446 5.20766 20.2295 6.18308 20.2295C7.15966 20.2295 7.95167 19.446 7.95167 18.4791Z"></path><path d="M6.4353 20.9338C6.4353 20.7329 6.27292 20.5718 6.07317 20.5718C5.87341 20.5718 5.71221 20.7341 5.71221 20.9338C5.71221 21.1335 5.87458 21.2946 6.07317 21.2946C6.27292 21.2946 6.4353 21.1335 6.4353 20.9338Z"></path><path d="M6.64569 22.0022C6.5464 22.0022 6.46463 22.0828 6.46463 22.1832C6.46463 22.2825 6.54523 22.3654 6.64569 22.3654C6.74499 22.3654 6.82676 22.2836 6.82676 22.1832C6.82676 22.084 6.74615 22.0022 6.64569 22.0022Z"></path><path d="M7.29517 20.1593C7.09541 20.1593 6.93304 20.3216 6.93304 20.5202C6.93304 20.7198 7.09541 20.881 7.29517 20.881C7.49493 20.881 7.6573 20.7187 7.6573 20.5202C7.65613 20.3216 7.49493 20.1593 7.29517 20.1593Z"></path><path d="M9.95506 19.9701C9.95506 19.3711 9.4691 18.8853 8.86867 18.8853C8.2694 18.8853 7.78345 19.3711 7.78345 19.9701C7.78345 20.5703 8.2694 21.0561 8.86867 21.0561C9.4691 21.055 9.95506 20.5692 9.95506 19.9701Z"></path><path d="M8.95978 22.8055C8.85932 22.8055 8.77872 22.886 8.77872 22.9865C8.77872 23.0857 8.85932 23.1675 8.95978 23.1675C9.06024 23.1675 9.14085 23.0869 9.14085 22.9865C9.14085 22.886 9.06024 22.8055 8.95978 22.8055Z"></path><path d="M9.46089 21.0924C9.26113 21.0924 9.09993 21.2547 9.09993 21.4532C9.09993 21.654 9.2623 21.8152 9.46089 21.8152C9.66064 21.8152 9.82302 21.6529 9.82302 21.4532C9.82302 21.2535 9.66064 21.0924 9.46089 21.0924Z"></path><path d="M10.2821 22.3722C10.0824 22.3722 9.92119 22.5334 9.92119 22.7342C9.92119 22.9339 10.0836 23.0962 10.2821 23.0962C10.4819 23.0962 10.6443 22.9339 10.6443 22.7342C10.6443 22.5334 10.4831 22.3722 10.2821 22.3722Z"></path><path d="M9.48194 3.18427C8.88268 3.18427 8.39672 3.67004 8.39672 4.26908C8.39672 4.86812 8.88268 5.35389 9.48194 5.35389C10.0812 5.35389 10.5683 4.86812 10.5683 4.26908C10.5672 3.67004 10.0812 3.18427 9.48194 3.18427Z"></path><path d="M11.0953 20.246C10.496 20.246 10.0089 20.7318 10.0089 21.3309C10.0089 21.9287 10.4949 22.4157 11.0953 22.4157C11.6946 22.4157 12.1805 21.9299 12.1805 21.3309C12.1805 20.7318 11.6946 20.246 11.0953 20.246Z"></path><path d="M11.9268 22.7401C11.8264 22.7401 11.7458 22.8207 11.7458 22.9211C11.7458 23.0204 11.8264 23.1021 11.9268 23.1021C12.0261 23.1021 12.1079 23.0204 12.1079 22.9211C12.1079 22.8207 12.0261 22.7401 11.9268 22.7401Z"></path><path d="M12.4363 22.3781C12.337 22.3781 12.2552 22.4586 12.2552 22.5591C12.2552 22.6607 12.3358 22.7412 12.4363 22.7412C12.5356 22.7412 12.6173 22.6607 12.6173 22.5591C12.6173 22.4586 12.5367 22.3781 12.4363 22.3781Z"></path><path d="M12.6594 21.5142C12.4596 21.5142 12.2972 21.6765 12.2972 21.8762C12.2972 22.0759 12.4596 22.2382 12.6594 22.2382C12.8591 22.2382 13.0203 22.0759 13.0203 21.8762C13.0203 21.6765 12.8591 21.5142 12.6594 21.5142Z"></path><path d="M12.7493 20.6383C12.5495 20.6383 12.3872 20.8006 12.3872 21.0003C12.3872 21.2 12.5495 21.3611 12.7493 21.3611C12.9491 21.3611 13.1103 21.1988 13.1103 21.0003C13.1103 20.8018 12.9491 20.6383 12.7493 20.6383Z"></path><path d="M13.2283 6.80653C13.2283 6.48774 12.969 6.22734 12.65 6.22734C12.33 6.22734 12.0706 6.48658 12.0706 6.80653C12.0706 7.12649 12.33 7.38572 12.65 7.38572C12.9701 7.38455 13.2283 7.12649 13.2283 6.80653Z"></path><path d="M12.2879 5.25475C12.2879 4.78416 11.9059 4.40232 11.4351 4.40232C10.9643 4.40232 10.5824 4.78416 10.5824 5.25475C10.5824 5.72534 10.9643 6.10719 11.4351 6.10719C11.9059 6.10719 12.2879 5.72534 12.2879 5.25475Z"></path><path d="M7.67607 4.25028C7.3595 4.25028 7.10251 4.50718 7.10251 4.82363C7.10251 5.14008 7.35833 5.39698 7.67607 5.39698C7.99265 5.39698 8.24847 5.14008 8.24847 4.82363C8.24964 4.50601 7.99265 4.25028 7.67607 4.25028Z"></path><path d="M15.0494 19.7344C15.0494 19.8547 15.1475 19.9516 15.2667 19.9516C15.387 19.9516 15.484 19.8547 15.484 19.7344C15.484 19.613 15.387 19.516 15.2667 19.516C15.1475 19.516 15.0494 19.613 15.0494 19.7344Z"></path><path d="M14.7164 20.0451C13.9174 20.0451 13.2691 20.6932 13.2691 21.4919C13.2691 22.2906 13.9174 22.9387 14.7164 22.9387C15.5154 22.9387 16.1638 22.2906 16.1638 21.4919C16.1638 20.6932 15.5154 20.0451 14.7164 20.0451Z"></path><path d="M16.7351 21.0177C16.5341 21.0177 16.3729 21.18 16.3729 21.3796C16.3729 21.5793 16.5353 21.7416 16.7351 21.7416C16.9348 21.7416 17.0972 21.5793 17.0972 21.3796C17.0972 21.1788 16.9348 21.0177 16.7351 21.0177Z"></path><path d="M17.9886 21.1439C17.5879 21.1439 17.2643 21.4674 17.2643 21.8667C17.2643 22.2673 17.5879 22.5907 17.9886 22.5907C18.3881 22.5907 18.7117 22.2673 18.7117 21.8667C18.7117 21.4674 18.3869 21.1439 17.9886 21.1439Z"></path><path d="M17.5551 23.1347C17.4558 23.1347 17.3741 23.2153 17.3741 23.3157C17.3741 23.415 17.4547 23.4967 17.5551 23.4967C17.6544 23.4967 17.7373 23.415 17.7373 23.3157C17.7373 23.2153 17.6544 23.1347 17.5551 23.1347Z"></path><path d="M14.0611 23.6368C13.9606 23.6368 13.88 23.7174 13.88 23.819C13.88 23.9194 13.9606 24 14.0611 24C14.1604 24 14.2421 23.9194 14.2421 23.819C14.241 23.7174 14.1604 23.6368 14.0611 23.6368Z"></path><path d="M18.4488 19.5568C18.249 19.5568 18.0878 19.7202 18.0878 19.9187C18.0878 20.1184 18.2502 20.2796 18.4488 20.2796C18.6485 20.2796 18.8097 20.1173 18.8097 19.9187C18.8109 19.7202 18.6485 19.5568 18.4488 19.5568Z"></path><path d="M17.908 20.8192C18.0073 20.8192 18.089 20.7375 18.089 20.6383C18.089 20.539 18.0084 20.4573 17.908 20.4573C17.8075 20.4573 17.7257 20.539 17.7257 20.6383C17.7269 20.7387 17.8075 20.8192 17.908 20.8192Z"></path><path d="M16.0576 5.12614C16.0576 5.22656 16.1382 5.30713 16.2386 5.30713C16.3391 5.30713 16.4209 5.22539 16.4209 5.12614C16.4209 5.02688 16.3403 4.94514 16.2386 4.94514C16.1382 4.94514 16.0576 5.02571 16.0576 5.12614Z"></path><path d="M17.214 18.2944C17.214 18.194 17.1334 18.1123 17.0329 18.1123C16.9337 18.1123 16.8519 18.1928 16.8519 18.2944C16.8519 18.3937 16.9325 18.4754 17.0329 18.4754C17.1334 18.4754 17.214 18.3937 17.214 18.2944Z"></path><path d="M16.7596 18.6191C16.1604 18.6191 15.6744 19.1048 15.6744 19.7039C15.6744 20.3017 16.1604 20.7875 16.7596 20.7875C17.3577 20.7875 17.8448 20.3017 17.8448 19.7039C17.8448 19.1048 17.3589 18.6191 16.7596 18.6191Z"></path><path d="M18.2327 5.58162C18.332 5.58162 18.4138 5.50105 18.4138 5.40062C18.4138 5.30137 18.3331 5.21963 18.2327 5.21963C18.1334 5.21963 18.0516 5.3002 18.0516 5.40062C18.0516 5.50105 18.1322 5.58162 18.2327 5.58162Z"></path><path d="M18.5527 16.661C18.5527 16.8618 18.7151 17.0229 18.9137 17.0229C19.1146 17.0229 19.2758 16.8606 19.2758 16.661C19.2758 16.4613 19.1134 16.3001 18.9137 16.3001C18.7139 16.3001 18.5527 16.4613 18.5527 16.661Z"></path><path d="M18.4804 17.0849C17.8799 17.0849 17.3951 17.5707 17.3951 18.1709C17.3951 18.7688 17.8811 19.2545 18.4804 19.2545C19.0796 19.2545 19.5656 18.7688 19.5656 18.1709C19.5656 17.5707 19.0796 17.0849 18.4804 17.0849Z"></path><path d="M20.1869 18.0285C19.9872 18.0285 19.826 18.1896 19.826 18.3893C19.826 18.589 19.9883 18.7501 20.1869 18.7501C20.3879 18.7501 20.5491 18.5878 20.5491 18.3893C20.5491 18.1896 20.3867 18.0285 20.1869 18.0285Z"></path><path d="M21.0666 20.0928C20.8669 20.0998 20.7115 20.2668 20.7185 20.4676C20.7243 20.6673 20.8926 20.8226 21.0923 20.8156C21.2932 20.8098 21.4486 20.6416 21.4416 20.4419C21.4346 20.2411 21.2675 20.0858 21.0666 20.0928Z"></path><path d="M21.4416 19.1879C21.3411 19.1879 21.2605 19.2685 21.2605 19.3689C21.2605 19.4682 21.3411 19.5499 21.4416 19.5499C21.5409 19.5499 21.6226 19.4694 21.6226 19.3689C21.6226 19.2697 21.542 19.1879 21.4416 19.1879Z"></path><path d="M8.44116 18.7174C8.56148 18.7174 8.65844 18.6205 8.65844 18.5002C8.65844 18.38 8.56148 18.283 8.44116 18.283C8.32084 18.283 8.22389 18.38 8.22389 18.5002C8.22389 18.6205 8.32084 18.7174 8.44116 18.7174Z"></path><path d="M21.1637 14.3418C20.1649 14.3418 19.3554 15.151 19.3554 16.1506C19.3554 17.149 20.1649 17.9582 21.1637 17.9582C22.1624 17.9582 22.9732 17.149 22.9732 16.1506C22.9732 15.151 22.1624 14.3418 21.1637 14.3418Z"></path><path d="M23.1027 14.4189C22.903 14.4189 22.7418 14.5812 22.7418 14.7797C22.7418 14.9794 22.9041 15.1417 23.1027 15.1417C23.3036 15.1417 23.4648 14.9794 23.4648 14.7797C23.4648 14.5812 23.3036 14.4189 23.1027 14.4189Z"></path><path d="M22.0116 10.353C22.0116 10.2327 21.9146 10.1358 21.7955 10.1358C21.6763 10.1358 21.5782 10.2327 21.5782 10.353C21.5782 10.4721 21.6752 10.5702 21.7955 10.5702C21.9146 10.569 22.0116 10.4721 22.0116 10.353Z"></path><path d="M21.4708 13.8585C21.7955 13.8585 22.0572 13.5958 22.0572 13.2723C22.0572 12.9488 21.7955 12.6861 21.4708 12.6861C21.1472 12.6861 20.8855 12.9488 20.8855 13.2723C20.8844 13.5958 21.1472 13.8585 21.4708 13.8585Z"></path><path d="M21.0678 7.62643C20.9685 7.62643 20.8867 7.707 20.8867 7.80743C20.8867 7.90785 20.9673 7.98842 21.0678 7.98842C21.1671 7.98842 21.2488 7.90785 21.2488 7.80743C21.2488 7.70817 21.1671 7.62643 21.0678 7.62643Z"></path><path d="M20.4592 13.9797C20.4592 14.0801 20.5398 14.1607 20.6402 14.1607C20.7395 14.1607 20.8213 14.0801 20.8213 13.9797C20.8213 13.8793 20.7407 13.7987 20.6402 13.7987C20.5398 13.7999 20.4592 13.8804 20.4592 13.9797Z"></path><path d="M23.6413 11.6023C23.6413 11.0032 23.1553 10.5175 22.5561 10.5175C21.9568 10.5175 21.4708 11.0032 21.4708 11.6023C21.4708 12.2013 21.9568 12.6871 22.5561 12.6871C23.1553 12.6871 23.6413 12.2013 23.6413 11.6023Z"></path><path d="M23.3597 12.7702C22.959 12.7702 22.6354 13.0948 22.6354 13.493C22.6354 13.8924 22.959 14.217 23.3597 14.217C23.7592 14.217 24.0828 13.8924 24.0828 13.493C24.0828 13.0948 23.7592 12.7702 23.3597 12.7702Z"></path><path d="M24.2873 14.2333C24.0876 14.2403 23.9311 14.4073 23.9381 14.6081C23.9451 14.8078 24.1121 14.9643 24.313 14.9561C24.5128 14.9491 24.6682 14.7821 24.6612 14.5824C24.6553 14.3839 24.4871 14.2275 24.2873 14.2333Z"></path><path d="M24.599 15.283C24.4986 15.283 24.418 15.3636 24.418 15.464C24.418 15.5633 24.4986 15.645 24.599 15.645C24.6995 15.645 24.7801 15.5633 24.7801 15.464C24.7801 15.3648 24.6995 15.283 24.599 15.283Z"></path><path d="M24.8667 10.2561C24.667 10.2631 24.5116 10.4301 24.5174 10.6298C24.5244 10.8294 24.6927 10.9859 24.8924 10.9789C25.0922 10.9719 25.2487 10.8049 25.2417 10.6041C25.2335 10.4056 25.0653 10.2491 24.8667 10.2561Z"></path><path d="M21.3645 6.96642C21.3645 6.685 21.1472 6.45613 20.8808 6.45613C20.6145 6.45613 20.3995 6.685 20.3995 6.96642C20.3995 7.24901 20.6157 7.47671 20.8808 7.47671C21.1472 7.47788 21.3645 7.24901 21.3645 6.96642Z"></path><path d="M19.9521 6.58821C19.9521 6.68863 20.0327 6.7692 20.1331 6.7692C20.2324 6.7692 20.3142 6.68863 20.3142 6.58821C20.3142 6.48778 20.2336 6.40721 20.1331 6.40721C20.0327 6.40721 19.9521 6.48895 19.9521 6.58821Z"></path><path d="M18.0388 4.62069C18.0388 4.22133 17.7152 3.89788 17.3146 3.89788C16.915 3.89788 16.5915 4.22133 16.5915 4.62069C16.5915 5.02005 16.915 5.34351 17.3146 5.34351C17.7152 5.34351 18.0388 5.01888 18.0388 4.62069Z"></path><path d="M6.2263 16.0397C6.09196 16.0397 5.98215 16.1483 5.98215 16.2826C5.98215 16.4169 6.09196 16.5255 6.2263 16.5255C6.36064 16.5255 6.46927 16.4169 6.46927 16.2826C6.46927 16.1483 6.35947 16.0397 6.2263 16.0397Z"></path><path d="M8.39554 22.2195C8.1327 22.2195 7.91776 22.0058 7.91776 21.7431C7.91776 21.478 8.13154 21.2643 8.39554 21.2643C8.65954 21.2643 8.87332 21.478 8.87332 21.7431C8.87332 22.0058 8.65954 22.2195 8.39554 22.2195Z"></path></svg>